<svg width="1024" height="1025" viewBox="0 0 1024 1025" fill="none" xmlns="http://www.w3.org/2000/svg">
<rect width="1024" height="1025" fill="#232A3A"/>
<path d="M623.92 527.36C631.423 534.863 641.599 539.078 652.21 539.078C662.821 539.078 672.997 534.863 680.5 527.36C688.003 519.857 692.218 509.681 692.218 499.07C692.218 488.459 688.003 478.283 680.5 470.78L645.14 435.44C652.643 442.94 662.818 447.153 673.427 447.151C678.68 447.15 683.881 446.115 688.734 444.104C693.587 442.092 697.996 439.145 701.71 435.43C705.424 431.715 708.369 427.305 710.379 422.451C712.388 417.598 713.422 412.396 713.421 407.143C713.42 401.89 712.384 396.689 710.373 391.836C708.362 386.983 705.415 382.574 701.7 378.86L645.14 322.3C637.64 314.797 627.466 310.581 616.857 310.579C606.248 310.577 596.073 314.79 588.57 322.29C581.067 329.79 576.851 339.964 576.849 350.573C576.847 361.182 581.06 371.357 588.56 378.86L553.22 343.5C549.505 339.785 545.094 336.838 540.24 334.827C535.386 332.817 530.184 331.782 524.93 331.782C519.676 331.782 514.473 332.817 509.619 334.827C504.765 336.838 500.355 339.785 496.64 343.5C492.925 347.215 489.978 351.626 487.967 356.48C485.957 361.334 484.922 366.536 484.922 371.79C484.922 377.044 485.957 382.247 487.967 387.101C489.978 391.955 492.925 396.365 496.64 400.08L623.92 527.36Z" stroke="#7AA2F7" stroke-width="40" stroke-linecap="round" stroke-linejoin="round"/>
<path d="M322 702.002L350 674.002" stroke="#7AA2F7" stroke-width="40" stroke-linecap="round" stroke-linejoin="round"/>
<path d="M674 350L702 322" stroke="#7AA2F7" stroke-width="40" stroke-linecap="round" stroke-linejoin="round"/>
<path d="M378.86 701.698C386.36 709.201 396.534 713.417 407.143 713.419C412.396 713.42 417.598 712.386 422.451 710.377C427.305 708.367 431.715 705.422 435.43 701.708C439.145 697.994 442.092 693.585 444.104 688.732C446.115 683.879 447.15 678.678 447.151 673.425C447.152 668.172 446.118 662.97 444.109 658.117C442.1 653.263 439.154 648.853 435.44 645.138L470.78 680.498C478.283 688.001 488.459 692.216 499.07 692.216C509.681 692.216 519.857 688.001 527.36 680.498C534.863 672.995 539.078 662.819 539.078 652.208C539.078 641.597 534.863 631.421 527.36 623.918L400.08 496.638C396.365 492.923 391.955 489.976 387.101 487.965C382.247 485.955 377.044 484.92 371.79 484.92C366.536 484.92 361.334 485.955 356.48 487.965C351.626 489.976 347.215 492.923 343.5 496.638C339.785 500.353 336.838 504.764 334.827 509.618C332.817 514.472 331.782 519.674 331.782 524.928C331.782 530.182 332.817 535.384 334.827 540.238C336.838 545.092 339.785 549.503 343.5 553.218L378.86 588.558C371.357 581.058 361.182 576.845 350.573 576.847C339.964 576.849 329.79 581.065 322.29 588.568C314.79 596.071 310.577 606.246 310.579 616.855C310.581 627.464 314.797 637.638 322.3 645.138L378.86 701.698Z" stroke="#7AA2F7" stroke-width="40" stroke-linecap="round" stroke-linejoin="round"/>
<path d="M464 560.002L560 464.002" stroke="#7AA2F7" stroke-width="40" stroke-linecap="round" stroke-linejoin="round"/>
</svg>
